<svg xmlns="http://www.w3.org/2000/svg" width="36" height="45" fill="none" viewBox="0 0 36 45">
  <g clip-path="url(#a)">
    <path fill="#5C73AD" fill-opacity=".68" d="M17.525.593C12.88.6 8.425 2.414 5.14 5.641 1.854 8.868.006 13.242 0 17.806a16.84 16.84 0 0 0 3.53 10.327s.479.618.557.707l13.438 15.567L30.97 28.833c.07-.083.55-.7.55-.7l.002-.005a16.835 16.835 0 0 0 3.529-10.322c-.006-4.564-1.854-8.938-5.14-12.165C26.626 2.414 22.171.599 17.525.593Zm0 23.472a6.455 6.455 0 0 1-3.54-1.055 6.285 6.285 0 0 1-2.348-2.809 6.156 6.156 0 0 1-.362-3.616 6.225 6.225 0 0 1 1.744-3.205 6.41 6.41 0 0 1 3.263-1.713 6.48 6.48 0 0 1 3.682.356 6.35 6.35 0 0 1 2.86 2.305 6.18 6.18 0 0 1 1.074 3.478 6.21 6.21 0 0 1-1.869 4.423 6.44 6.44 0 0 1-4.504 1.836Z"/>
  </g>
  <defs>
    <clipPath id="a">
      <path fill="#fff" d="M0 0h35.05v43.813H0z" transform="translate(0 .593)"/>
    </clipPath>
  </defs>
</svg>
